<svg width="44" height="51" viewBox="0 0 44 51" fill="none" xmlns="http://www.w3.org/2000/svg">
<path d="M39.5001 50H4.50002C2.56702 50 1 48.5479 1 46.7564C1 41.3914 4.59171 36.5894 10.0128 34.7065L11.0891 34.3325C18.1241 31.8892 25.8758 31.8892 32.9108 34.3325L33.9873 34.7065C39.4082 36.5894 43 41.3914 43 46.7564C43 48.5479 41.4329 50 39.5001 50Z" stroke="#163152" stroke-linecap="square" stroke-linejoin="round"/>
<path d="M16.5026 23.4134C19.9532 25.0289 24.0468 25.0289 27.4973 23.4134C30.709 21.91 33.0098 19.1718 33.7651 15.9544L33.9669 15.0957C34.7392 11.8055 33.9141 8.37159 31.7034 5.67682L31.3796 5.28218C29.1686 2.58704 25.6925 1 22 1C18.3075 1 14.8313 2.58704 12.6203 5.28218L12.2966 5.67682C10.0859 8.37159 9.2607 11.8055 10.0332 15.0957L10.2348 15.9544C10.9903 19.1718 13.2912 21.91 16.5026 23.4134Z" stroke="#163152" stroke-linecap="square" stroke-linejoin="round"/>
</svg>
